# xmcd
#
# Track frame offsets:
#	150
#	21976
#	41627
#	59253
#	78078
#	97279
#	117905
#	137706
#	159982
#	179632
#	197483
#	216309
#	235435
#	251336
#	268137
#
# Disc length: 3805 seconds
#
# Revision: 2
# Processed by: cddbd v1.5.1PL0 Copyright (c) Steve Scherf et al.
# Submitted via: audiograbber 1.83.01
#
DISCID=d90edb0f
DTITLE=Mariah Carey - Standing Ovation Karaoke - SOK-MC
DYEAR=1900
DGENRE=Karaoke
TTITLE0=All In Your Mind
TTITLE1=Anytime You Need A Friend
TTITLE2=Can't Let Go
TTITLE3=Dreamlover
TTITLE4=Emotions
TTITLE5=Endless Love
TTITLE6=Hero
TTITLE7=I Don't Wanna Cry
TTITLE8=I'll Be There
TTITLE9=Love Takes Time
TTITLE10=Make It Happen
TTITLE11=Someday
TTITLE12=Vision Of Love
TTITLE13=Without You
TTITLE14=You Need Me
EXTD=
EXTT0=
EXTT1=
EXTT2=
EXTT3=
EXTT4=
EXTT5=
EXTT6=
EXTT7=
EXTT8=
EXTT9=
EXTT10=
EXTT11=
EXTT12=
EXTT13=
EXTT14=
PLAYORDER=
